<?xml version="1.0" encoding="UTF-8" standalone="no"?>
<svg
   width="100%"
   height="100%"
   viewBox="0 0 449 426"
   version="1.1"
   xml:space="preserve"
   style="fill-rule:evenodd;clip-rule:evenodd;stroke-linejoin:round;stroke-miterlimit:2;"
   id="svg6"
   sodipodi:docname="logo_splashos_color.svg"
   inkscape:version="1.4.4 (dcaf3e7d9e, 2026-05-05)"
   xmlns:inkscape="http://www.inkscape.org/namespaces/inkscape"
   xmlns:sodipodi="http://sodipodi.sourceforge.net/DTD/sodipodi-0.dtd"
   xmlns:xlink="http://www.w3.org/1999/xlink"
   xmlns="http://www.w3.org/2000/svg"
   xmlns:svg="http://www.w3.org/2000/svg"><defs
   id="defs6"><linearGradient
     id="linearGradient25"
     inkscape:collect="always"><stop
       style="stop-color:#9ee5fc;stop-opacity:1;"
       offset="0"
       id="stop25" /><stop
       style="stop-color:#9ee5fc;stop-opacity:0;"
       offset="1"
       id="stop26" /></linearGradient><linearGradient
     id="linearGradient23"
     inkscape:collect="always"><stop
       style="stop-color:#0e79f4;stop-opacity:1;"
       offset="0"
       id="stop23" /><stop
       style="stop-color:#2492fc;stop-opacity:1;"
       offset="0.29131967"
       id="stop24" /></linearGradient><linearGradient
     id="linearGradient22"
     inkscape:collect="always"><stop
       style="stop-color:#0d77f4;stop-opacity:1;"
       offset="0"
       id="stop21" /><stop
       style="stop-color:#389cfe;stop-opacity:1;"
       offset="1"
       id="stop22" /></linearGradient><linearGradient
     id="linearGradient18"
     inkscape:collect="always"><stop
       style="stop-color:#0063d9;stop-opacity:1;"
       offset="0"
       id="stop18" /><stop
       style="stop-color:#389cfe;stop-opacity:1;"
       offset="1"
       id="stop19" /></linearGradient><linearGradient
     id="linearGradient16"
     inkscape:collect="always"><stop
       style="stop-color:#0773f6;stop-opacity:1;"
       offset="0"
       id="stop16" /><stop
       style="stop-color:#1a83f7;stop-opacity:1;"
       offset="0.26329133"
       id="stop20" /><stop
       style="stop-color:#1382f8;stop-opacity:1;"
       offset="1"
       id="stop17" /></linearGradient><linearGradient
     id="linearGradient14"
     inkscape:collect="always"><stop
       style="stop-color:#a3d4fd;stop-opacity:1;"
       offset="0"
       id="stop14" /><stop
       style="stop-color:#2296fd;stop-opacity:1;"
       offset="1"
       id="stop15" /></linearGradient><linearGradient
     id="linearGradient12"
     inkscape:collect="always"><stop
       style="stop-color:#2a92fa;stop-opacity:1;"
       offset="0"
       id="stop12" /><stop
       style="stop-color:#7ec4fe;stop-opacity:1;"
       offset="1"
       id="stop13" /></linearGradient><linearGradient
     id="linearGradient11"
     inkscape:collect="always"><stop
       style="stop-color:#3399fc;stop-opacity:1;"
       offset="0"
       id="stop10" /><stop
       style="stop-color:#6fb9fd;stop-opacity:1;"
       offset="1"
       id="stop11" /></linearGradient><linearGradient
     id="linearGradient8"
     inkscape:collect="always"><stop
       style="stop-color:#1187fc;stop-opacity:1;"
       offset="0"
       id="stop8" /><stop
       style="stop-color:#52abfd;stop-opacity:1;"
       offset="1"
       id="stop9" /></linearGradient><linearGradient
     inkscape:collect="always"
     xlink:href="#linearGradient8"
     id="linearGradient9"
     x1="384.41879"
     y1="35.917702"
     x2="388.46024"
     y2="50.6679"
     gradientUnits="userSpaceOnUse" /><linearGradient
     inkscape:collect="always"
     xlink:href="#linearGradient11"
     id="linearGradient10"
     gradientUnits="userSpaceOnUse"
     x1="377.19092"
     y1="48.053001"
     x2="405.56796"
     y2="53.320374" /><linearGradient
     inkscape:collect="always"
     xlink:href="#linearGradient12"
     id="linearGradient13"
     x1="357.29761"
     y1="162.19661"
     x2="389.37991"
     y2="141.28552"
     gradientUnits="userSpaceOnUse" /><linearGradient
     inkscape:collect="always"
     xlink:href="#linearGradient14"
     id="linearGradient15"
     x1="208.14998"
     y1="37.394211"
     x2="121.89999"
     y2="350.44858"
     gradientUnits="userSpaceOnUse" /><linearGradient
     inkscape:collect="always"
     xlink:href="#linearGradient16"
     id="linearGradient17"
     x1="102.26177"
     y1="164.46542"
     x2="276.65784"
     y2="349.24744"
     gradientUnits="userSpaceOnUse" /><linearGradient
     inkscape:collect="always"
     xlink:href="#linearGradient18"
     id="linearGradient19"
     x1="173.71825"
     y1="196.59328"
     x2="185.71043"
     y2="353.46552"
     gradientUnits="userSpaceOnUse" /><linearGradient
     inkscape:collect="always"
     xlink:href="#linearGradient22"
     id="linearGradient20"
     gradientUnits="userSpaceOnUse"
     x1="173.71825"
     y1="196.59328"
     x2="302.16159"
     y2="367.42041" /><linearGradient
     inkscape:collect="always"
     xlink:href="#linearGradient23"
     id="linearGradient24"
     x1="174.1537"
     y1="196.81013"
     x2="386.37216"
     y2="278.61469"
     gradientUnits="userSpaceOnUse" /><linearGradient
     inkscape:collect="always"
     xlink:href="#linearGradient25"
     id="linearGradient26"
     x1="188.39711"
     y1="143.77368"
     x2="189.56006"
     y2="174.57071"
     gradientUnits="userSpaceOnUse" /></defs><sodipodi:namedview
   id="namedview6"
   pagecolor="#505050"
   bordercolor="#eeeeee"
   borderopacity="1"
   inkscape:showpageshadow="0"
   inkscape:pageopacity="0"
   inkscape:pagecheckerboard="0"
   inkscape:deskcolor="#505050"
   inkscape:zoom="1.8806385"
   inkscape:cx="249.38339"
   inkscape:cy="224.12601"
   inkscape:window-width="2560"
   inkscape:window-height="1342"
   inkscape:window-x="0"
   inkscape:window-y="0"
   inkscape:window-maximized="1"
   inkscape:current-layer="svg6" />
    <g
   transform="matrix(1.11424,0,0,1.11424,-13.2891,-27.5345)"
   id="g1">
        <path
   d="M371.861,287.98C344.02,351.322 280.89,395.781 207.55,395C114.431,394.008 35.925,319.509 34,220.459C32.017,118.415 116.483,41.604 207.55,36.992C234.926,35.605 257.01,39.987 275.216,47.252C293.36,54.492 315.02,68.328 326.555,91.536C331.266,101.013 336.587,123.109 327.547,131.204C321.583,136.545 311.334,136.29 306.721,130.672C302.505,125.537 292.407,120.156 288.87,126.246C284.498,133.774 302.791,146.389 300.771,177.815C299.77,193.375 291.349,205.748 280.936,213.517C272.742,219.63 260.879,220.178 253.169,214.508C245.941,209.193 246.127,203.965 245.701,198.964C245.181,192.849 243.404,188.104 239.285,183.765C234.395,178.616 227.845,173.409 211.663,173.337C183.946,173.212 169.908,197.951 170.283,217.714C171.381,261.677 214.326,286.903 254.16,286.903C270.157,286.903 286.451,282.288 301.437,275.822C316.073,269.507 332.065,258.09 345.398,244.26C355.21,234.081 362.399,222.243 373.166,226.409C391.589,233.537 371.861,287.98 371.861,287.98Z"
   style="fill:url(#linearGradient15)"
   id="path1" />
    </g>
    <g
   transform="matrix(1.10501,0,0,1.10501,-14.0801,-22.7821)"
   id="g2">
        <path
   d="M246.515,187.797C245.486,185.359 244.023,183.131 242,181C237.07,175.808 230.465,170.557 214.148,170.485C186.199,170.359 172.044,195.304 172.422,215.232C173.529,259.563 216.833,285 257,285C273.13,285 289.561,280.346 304.672,273.826C319.43,267.458 335.556,255.946 349,242C358.894,231.736 366.143,219.799 377,224C395.577,231.188 375.684,286.086 375.684,286.086C347.611,349.957 283.953,394.787 210,394C173.179,393.608 138.624,381.817 110.103,361.606C96.319,345.439 64.032,299.775 76,238C86.314,184.762 129.855,142.056 182.275,139.925C229.586,139.201 242.866,172.013 246.515,187.797Z"
   style="fill:url(#linearGradient17);stroke:url(#linearGradient26)"
   id="path2" />
    </g>
    <g
   transform="matrix(1.10501,0,0,1.10501,-14.0801,-22.7821)"
   id="g3"
   style="fill:url(#linearGradient19)">
        <path
   d="M175.646,197.608C173.394,203.424 172.314,209.534 172.422,215.232C173.529,259.563 216.833,285 257,285C273.13,285 289.561,280.346 304.672,273.826C319.43,267.458 335.556,255.946 349,242C358.894,231.736 366.143,219.799 377,224C395.577,231.188 375.684,286.086 375.684,286.086C357.129,328.302 323.028,362.2 280.683,380.106L275,382C275,382 222.864,386.248 183.179,358.694C141.135,329.502 132.165,291.21 134,267C138.333,209.833 175.758,196.695 175.758,196.695L175.646,197.608Z"
   style="fill:url(#linearGradient20)"
   id="path3" />
    </g>
    <g
   transform="matrix(1.10501,0,0,1.10501,-14.0801,-22.7821)"
   id="g4">
        <path
   d="M175.646,197.608C173.394,203.424 172.314,209.534 172.422,215.232C173.529,259.563 216.833,285 257,285C273.13,285 289.561,280.346 304.672,273.826C319.43,267.458 335.556,255.946 349,242C358.894,231.736 366.143,219.799 377,224C395.577,231.188 375.684,286.086 375.684,286.086C373.362,291.368 370.797,296.52 368.003,301.527L367.673,302.053C367.673,302.053 331.571,330.12 294.772,335.067C260.069,339.732 217.515,333.711 187.965,303.124C133.656,246.911 175.758,196.695 175.758,196.695L175.646,197.608Z"
   style="fill:url(#linearGradient24)"
   id="path4" />
    </g>
    <g
   transform="matrix(1.10501,0,0,1.10501,-14.0801,-22.7821)"
   id="g5">
        <path
   d="M352,134C360.09,125.532 378.096,126.992 389.049,136.907C398.823,145.755 399.721,160.816 390,172C382.353,180.798 365.04,181.429 355.751,172.593C345.441,162.787 342.904,143.521 352,134Z"
   style="fill:url(#linearGradient13)"
   id="path5" />
    </g>
    <g
   transform="matrix(0.903529,-0.636138,0.693064,0.984383,-3.81713,258.158)"
   id="g6"
   style="fill:url(#linearGradient9);fill-opacity:1">
        <path
   d="M381.23,30C387.45,28.095 405.62,34.205 406.212,52.827C406.535,62.97 397.311,71.395 389.86,71.395C382.409,71.395 375.269,65.003 375.269,58.164C375.269,52.27 378.989,48.614 379.344,43.96C379.88,36.938 376.228,31.532 381.23,30Z"
   style="fill:url(#linearGradient10);fill-opacity:1"
   id="path6" />
    </g>
</svg>
