<?xml version="1.0" encoding="UTF-8" standalone="no"?>
<!DOCTYPE svg PUBLIC "-//W3C//DTD SVG 1.1//EN" "http://www.w3.org/Graphics/SVG/1.1/DTD/svg11.dtd">
<svg width="100%" height="100%" viewBox="0 0 449 426" version="1.1" xmlns="http://www.w3.org/2000/svg" xmlns:xlink="http://www.w3.org/1999/xlink" xml:space="preserve" xmlns:serif="http://www.serif.com/" style="fill-rule:evenodd;clip-rule:evenodd;stroke-linejoin:round;stroke-miterlimit:2;">
    <g transform="matrix(1.11424,0,0,1.11424,-13.2891,-27.5345)">
        <path d="M371.861,287.98C344.02,351.322 280.89,395.781 207.55,395C114.431,394.008 35.925,319.509 34,220.459C32.017,118.415 116.483,41.604 207.55,36.992C234.926,35.605 257.01,39.987 275.216,47.252C293.36,54.492 315.02,68.328 326.555,91.536C331.266,101.013 336.587,123.109 327.547,131.204C321.583,136.545 311.334,136.29 306.721,130.672C302.505,125.537 292.407,120.156 288.87,126.246C284.498,133.774 302.791,146.389 300.771,177.815C299.77,193.375 291.349,205.748 280.936,213.517C272.742,219.63 260.879,220.178 253.169,214.508C245.941,209.193 246.127,203.965 245.701,198.964C245.181,192.849 243.404,188.104 239.285,183.765C234.395,178.616 227.845,173.409 211.663,173.337C183.946,173.212 169.908,197.951 170.283,217.714C171.381,261.677 214.326,286.903 254.16,286.903C270.157,286.903 286.451,282.288 301.437,275.822C316.073,269.507 332.065,258.09 345.398,244.26C355.21,234.081 362.399,222.243 373.166,226.409C391.589,233.537 371.861,287.98 371.861,287.98Z"/>
    </g>
    <g transform="matrix(1.10501,0,0,1.10501,-14.0801,-22.7821)">
        <path d="M352,134C360.09,125.532 378.096,126.992 389.049,136.907C398.823,145.755 399.721,160.816 390,172C382.353,180.798 365.04,181.429 355.751,172.593C345.441,162.787 342.904,143.521 352,134Z"/>
    </g>
    <g transform="matrix(0.903529,-0.636138,0.693064,0.984383,-3.81713,258.158)">
        <path d="M381.23,30C387.45,28.095 405.62,34.205 406.212,52.827C406.535,62.97 397.311,71.395 389.86,71.395C382.409,71.395 375.269,65.003 375.269,58.164C375.269,52.27 378.989,48.614 379.344,43.96C379.88,36.938 376.228,31.532 381.23,30Z"/>
    </g>
</svg>
