<?xml version="1.0" encoding="utf-8"?>
<svg xmlns="http://www.w3.org/2000/svg" viewBox="0 0 500 500">
  <path style="" d="M 306.998 416.092 C 306.998 416.092 239.763 408.404 204.313 374.537 C 168.863 340.67 159.383 265.69 202.656 230.539 C 212.714 198.131 262.785 187.928 281.061 211.305 C 273.673 184.117 238.403 162.543 213.628 164.88 C 166.735 169.304 112.73 219.496 109.069 279.151 C 106.568 319.895 122.566 365.51 132.015 377.644 C 142.735 391.411 222.605 446.859 306.998 416.092 Z"/>
  <path style="" d="M 132.026 377.656 C 89.55 344.724 62.711 266.786 74.832 210.421 C 107.97 56.326 263.16 38.515 334.636 79.918 C 351.363 90.487 374.193 116.584 372.114 142.178 C 371.14 154.174 364.895 158.901 357.323 158.904 C 348.441 159.622 340.916 148.603 334.521 148.676 C 328.093 148.928 327.958 154.8 328.41 158.308 C 329.381 165.839 349.396 188.303 338.484 216.513 C 336.006 222.92 327.487 241.168 307.043 243.329 C 297.124 244.378 292.211 243.88 287.347 231.537 C 284.703 224.826 283.692 218.068 280.208 211.305 C 274.471 187.516 239.989 163.45 212.649 166.455 C 167.108 171.461 116.327 217.493 110.554 278.225 C 108.301 301.928 115.853 335.906 117.592 342.196 C 118.812 346.609 124.453 367.473 132.026 377.656 Z"/>
  <path style="" d="M 202.698 230.417 C 152.199 268.458 175.587 347.534 193.078 364.82 C 215.06 397.208 273.097 412.19 306.99 416.098 C 320.45 413.14 415.88 369.827 433.05 277.428 C 434.462 257.983 426.132 247.464 409.175 253.497 C 384.781 267.334 366.72 298.08 319.538 310.297 C 277.506 321.18 246.292 320.664 222.488 294.936 C 205.12 279.726 196.27 250.292 202.698 230.417 Z"/>
  <path style="" d="M 388.772 161.344 C 383.171 166.331 380.109 181.763 387.419 195.134 C 394.534 208.149 412.964 211.598 422.817 204.72 C 461.326 177.836 411.503 143.106 388.772 161.344 Z"/>
  <path style="" d="M 376.103 94.059 C 376.899 95.482 382.763 100.583 383.715 103.726 C 386.937 114.358 383.477 117.048 395.577 122.841 C 404.296 127.015 419.815 124.355 413.524 98.915 C 409.257 81.659 390.963 76.554 378.113 87.888 C 377.062 88.815 374.754 92.204 376.103 94.059 Z"/>
</svg>