<?xml version="1.0" encoding="utf-8" ?>
<svg xmlns="http://www.w3.org/2000/svg" viewBox="0 0 500 500">
  <ellipse
        style="fill: rgba(255, 0, 0, 0.694); pointer-events: none; visibility: hidden;"
        cx="253.754"
        cy="242.623"
        rx="181.808"
        ry="181.808"
    />
  <path
        style="fill: rgba(28, 255, 0, 0.42); pointer-events: none; visibility: hidden;"
        d="M 250.411 60.995 C 159.301 59.019 73.608 135.912 72.154 245.367 C 70.972 334.336 147.992 418.735 246.901 424.983 C 326.474 430.01 413.126 362.429 432.358 282.071 C 433.442 277.539 434.113 267.293 430.342 259.301 C 425.766 249.601 414.376 251.49 409.967 253.156 C 403.185 255.718 381.622 274.996 374.192 281.601 C 333.981 317.349 267.843 322.127 246.969 312.594 C 217.853 299.297 201.37 269.647 200.749 243.816 C 200.141 218.538 222.329 201.292 244.543 198.893 C 257.157 197.531 278.843 200.921 282.922 217.622 C 285.239 227.109 290.068 243.193 299.117 243.644 C 320.326 244.701 335.823 229.769 340.36 210.321 C 346.652 183.351 328.21 165.981 328.191 156.29 C 328.17 145.472 339.14 148.491 339.873 151.422 C 339.873 151.422 348.844 158.518 355.318 158.882 C 380.605 160.303 374.689 118.421 356.336 100.936 C 335.417 81.007 297.961 62.026 250.411 60.995 Z"
    />
  <path
        style="fill: rgba(186, 218, 85, 0.533); pointer-events: none;"
        d="M 306.99 416.097 C 306.99 416.097 237.771 409.258 202.321 375.391 C 166.871 341.524 157.539 264.626 202.697 230.417 C 212.755 198.009 261.931 187.928 280.207 211.305 C 272.819 184.117 238.144 164.264 213.343 166.303 C 169.067 169.942 114.266 217.575 110.492 279.151 C 108.013 319.61 122.566 365.51 132.015 377.644 C 142.735 391.411 222.597 446.864 306.99 416.097 Z"
    />
  <path
        style="fill: rgba(85, 159, 218, 0.592); pointer-events: none;"
        d="M 132.026 377.656 C 89.55 344.724 62.711 266.786 74.832 210.421 C 107.97 56.326 263.16 38.515 334.636 79.918 C 351.363 90.487 374.193 116.584 372.114 142.178 C 371.14 154.174 364.895 158.901 357.323 158.904 C 348.441 159.622 340.916 148.603 334.521 148.676 C 328.093 148.928 327.958 154.8 328.41 158.308 C 329.381 165.839 349.396 188.303 338.484 216.513 C 336.006 222.92 327.487 241.168 307.043 243.329 C 297.124 244.378 292.211 243.88 287.347 231.537 C 284.703 224.826 283.692 218.068 280.208 211.305 C 274.471 187.516 239.989 163.45 212.649 166.455 C 167.108 171.461 116.327 217.493 110.554 278.225 C 108.301 301.928 115.853 335.906 117.592 342.196 C 118.812 346.609 124.453 367.473 132.026 377.656 Z"
    />
  <path
        style="fill: rgb(218, 109, 85); fill-opacity: 0.52;"
        d="M 202.698 230.417 C 152.199 268.458 175.587 347.534 193.078 364.82 C 215.06 397.208 273.097 412.19 306.99 416.098 C 320.45 413.14 415.88 369.827 433.05 277.428 C 434.462 257.983 426.132 247.464 409.175 253.497 C 384.781 267.334 366.72 298.08 319.538 310.297 C 277.506 321.18 246.292 320.664 222.488 294.936 C 205.12 279.726 196.27 250.292 202.698 230.417 Z"
    />
  <path
        style="fill: rgb(255, 0, 0); fill-opacity: 0.66;"
        d="M 388.772 161.344 C 383.171 166.331 380.109 181.763 387.419 195.134 C 394.534 208.149 412.964 211.598 422.817 204.72 C 461.326 177.836 411.503 143.106 388.772 161.344 Z"
    />
  <path
        style="fill: rgb(255, 0, 0); fill-opacity: 0.66;"
        d="M 376.103 94.059 C 376.899 95.482 382.763 100.583 383.715 103.726 C 386.937 114.358 383.477 117.048 395.577 122.841 C 404.296 127.015 419.815 124.355 413.524 98.915 C 409.257 81.659 390.963 76.554 378.113 87.888 C 377.062 88.815 374.754 92.204 376.103 94.059 Z"
    />
</svg>
